<?xml version="1.0" encoding="UTF-8"?>
<svg id="Campus_logo" data-name="Campus logo" xmlns="http://www.w3.org/2000/svg" viewBox="0 0 1486 812">
  <defs>
    <style>
      .cls-1 {
        fill: #121212;
      }

      .cls-2 {
        font-family: Poppins-Regular, Poppins;
        font-size: 37px;
      }

      .cls-3 {
        fill: #3bd77d;
      }

      .cls-4 {
        fill: #fefefe;
      }
    </style>
  </defs>
  <rect class="cls-4" y="-7" width="1503" height="833"/>
  <g id="Logo">
    <g>
      <path class="cls-1" d="M565.67,378.58v-45.43h6.36v45.42c0,7.41,6.01,13.42,13.42,13.42h23.81v5.63h-24.55c-10.52,0-19.04-8.52-19.04-19.04Z"/>
      <path class="cls-1" d="M636.77,398.53c-3.39,0-6.54-.65-9.44-1.95-2.91-1.3-5.42-3.08-7.54-5.34-2.12-2.26-3.77-4.87-4.95-7.82-1.18-2.96-1.77-6.12-1.77-9.5,0-4.39,1.01-8.41,3.04-12.08,2.03-3.66,4.83-6.59,8.4-8.79,3.57-2.19,7.63-3.29,12.17-3.29s8.73,1.11,12.21,3.34c3.48,2.22,6.22,5.16,8.22,8.79,2,3.64,3,7.62,3,11.95v1.4c0,.45-.03.8-.09,1.04h-40.5c.3,3.37,1.26,6.37,2.86,8.99,1.6,2.62,3.69,4.7,6.27,6.23,2.57,1.53,5.37,2.3,8.4,2.3s6.01-.79,8.76-2.36c2.75-1.57,4.68-3.63,5.77-6.17l5.36,1.45c-.97,2.24-2.45,4.27-4.45,6.08-2,1.82-4.34,3.22-7.04,4.22-2.69,1-5.58,1.5-8.67,1.5ZM619.33,371.83h34.96c-.24-3.41-1.17-6.41-2.77-8.98-1.6-2.58-3.69-4.6-6.27-6.07-2.57-1.47-5.4-2.2-8.49-2.2s-5.9.73-8.44,2.2c-2.54,1.47-4.62,3.5-6.22,6.11-1.6,2.61-2.53,5.59-2.77,8.94Z"/>
      <path class="cls-1" d="M670.1,351.59l12.94,17.19c.08.11.16.23.23.36l.63,1.17.63-1.17c.07-.12.14-.24.22-.35l12.85-17.18c.52-.69,1.34-1.1,2.2-1.1h.07c2.28,0,3.57,2.6,2.19,4.42l-13.36,17.61c-.75.99-.75,2.36,0,3.34l13.3,17.33c1.39,1.81.1,4.43-2.18,4.43h-.03c-.87,0-1.68-.41-2.2-1.1l-12.87-17.13c-.07-.09-.13-.19-.19-.28l-.64-1.12-.64,1.12c-.06.1-.12.19-.19.29l-12.87,17.13c-.52.69-1.34,1.1-2.2,1.1h-.05c-2.28,0-3.57-2.61-2.19-4.42l13.24-17.34c.75-.98.75-2.34,0-3.33l-13.3-17.62c-1.37-1.81-.08-4.41,2.2-4.41h0c.86,0,1.68.41,2.2,1.1Z"/>
    </g>
    <g>
      <path class="cls-1" d="M772.63,384.61c1.59,1.39,1.73,3.86.24,5.36,0,0-.02.02-.03.03-5.7,5.7-13.56,9.22-22.26,9.22-5.22,0-10.15-1.27-14.48-3.52h-.02s-8.36,2.4-8.36,8.39c0,1.24-.51,2.37-1.32,3.18-1.12,1.12-2.84,1.66-4.64,1.08-1.31-.42-2.37-1.48-2.79-2.79-.58-1.81-.04-3.53,1.08-4.65.81-.81,1.93-1.32,3.18-1.32,0,0,7.84.66,6.91-7.91-6.76-5.77-11.03-14.36-11.03-23.94,0-8.69,3.52-16.56,9.22-22.26,4.44-4.44,10.19-7.55,16.61-8.71,2.76-.5,5.27,1.72,5.27,4.52h0c0,2.13-1.52,3.95-3.62,4.32-4.61.82-8.73,3.04-11.91,6.22-4.69,4.71-7.32,11.47-6.4,18.82,1.26,10.02,9.35,18.11,19.37,19.38,7.35.93,14.12-1.7,18.83-6.4,0,0,.02-.02.02-.02,1.29-1.3,3.34-1.43,4.72-.22l1.39,1.22Z"/>
      <path class="cls-1" d="M834.65,361.41c-1.77-3.29-4.11-5.94-7.03-7.94-.38-.25-.78-.51-1.18-.75-3.47-2.08-7.31-3.11-11.49-3.11-.69,0-1.36.02-2.01.08-.66-.06-1.32-.08-2.01-.08-4.19,0-8.02,1.03-11.48,3.11-.4.24-.79.49-1.18.75-2.91,1.99-5.26,4.65-7.04,7.94-2.01,3.73-3.01,8.01-3.01,12.84s1,9.16,3.01,12.99c1.78,3.39,4.13,6.11,7.04,8.16.36.27.74.51,1.13.75,3.43,2.12,7.22,3.19,11.36,3.19.74,0,1.47-.04,2.18-.1.72.06,1.44.1,2.18.1,4.14,0,7.93-1.07,11.36-3.19.39-.24.76-.5,1.14-.76v3.17h10.05v-24.3c0-4.83-1.01-9.11-3.02-12.84ZM812.85,390.68c-2.56,0-4.95-.64-7.16-1.93-2.22-1.27-4.01-3.16-5.38-5.63s-2.05-5.38-2.05-8.69.68-6.21,2.05-8.65c1.37-2.45,3.16-4.31,5.38-5.6,1.98-1.14,4.11-1.78,6.38-1.89.25-.01.51-.02.78-.02.32,0,.64.01.95.02,2.27.11,4.41.75,6.4,1.89,2.21,1.29,4.01,3.14,5.38,5.6,1.36,2.44,2.05,5.33,2.05,8.65s-.69,6.21-2.05,8.69c-1.37,2.48-3.17,4.36-5.38,5.63-2.22,1.29-4.61,1.93-7.17,1.93h-.17Z"/>
      <path class="cls-1" d="M928.91,370.15v28.4h-9.88v-26.92c0-4.31-1.08-7.61-3.23-9.92-2.06-2.19-4.83-3.34-8.31-3.44-.23-.01-.46-.01-.69-.01-.18,0-.35,0-.52.01-3.48.1-6.25,1.25-8.3,3.44-2.16,2.31-3.24,5.61-3.24,9.92v26.92h-9.78v-26.92c0-4.31-1.08-7.61-3.23-9.92-2.06-2.19-4.83-3.34-8.31-3.44-.23-.01-.46-.01-.69-.01-.18,0-.35,0-.52.01-3.48.1-6.25,1.25-8.3,3.44-2.16,2.31-3.24,5.61-3.24,9.92v26.92h-9.87v-28.4c0-4.37.86-8.1,2.57-11.19,1.72-3.08,4.08-5.41,7.08-6.99.11-.05.21-.11.32-.15,2.93-1.47,6.21-2.21,9.87-2.21.74,0,1.47.04,2.18.12.72-.08,1.44-.12,2.18-.12,3.85,0,7.28.81,10.32,2.45,1.75.95,3.26,2.12,4.54,3.56,1.27-1.43,2.79-2.61,4.55-3.56,3.02-1.64,6.46-2.45,10.3-2.45.74,0,1.47.04,2.18.12.72-.08,1.44-.12,2.18-.12,3.67,0,6.95.74,9.88,2.21.11.04.21.1.3.15,3,1.58,5.36,3.91,7.08,6.99,1.72,3.09,2.59,6.82,2.59,11.19Z"/>
      <path class="cls-1" d="M987.98,361.41c-1.76-3.29-4.09-5.94-6.99-7.94-.38-.25-.78-.51-1.18-.75-3.47-2.08-7.31-3.11-11.49-3.11-.69,0-1.38.02-2.05.1-.68-.07-1.36-.1-2.06-.1-4.19,0-8.02,1.03-11.48,3.11-.41.24-.81.5-1.19.76-2.91,1.99-5.23,4.64-6.99,7.93-1.98,3.73-2.96,8.01-2.96,12.84v47.19h9.95v-26.08c.38.28.78.53,1.19.79,3.46,2.12,7.29,3.19,11.48,3.19.7,0,1.4-.02,2.06-.09.67.06,1.35.09,2.05.09,4.19,0,8.02-1.07,11.49-3.19.4-.24.8-.51,1.18-.78,2.9-2.05,5.23-4.77,6.99-8.13,1.98-3.82,2.97-8.14,2.97-12.99s-1-9.11-2.97-12.84ZM978.94,383.12c-1.37,2.48-3.18,4.36-5.43,5.63-2.25,1.29-4.61,1.93-7.12,1.93h-.25c-2.51,0-4.88-.64-7.12-1.93-2.25-1.27-4.05-3.16-5.41-5.63-1.37-2.48-2.06-5.38-2.06-8.69s.69-6.21,2.06-8.65c1.36-2.45,3.17-4.31,5.41-5.6,2.04-1.15,4.16-1.8,6.42-1.89.23-.02.47-.02.7-.02h.25c.23,0,.47,0,.7.02,2.26.1,4.38.74,6.42,1.89,2.25,1.29,4.05,3.14,5.43,5.6,1.36,2.44,2.05,5.33,2.05,8.65s-.69,6.21-2.05,8.69Z"/>
      <path class="cls-1" d="M1044.43,350.4v28.32c0,4.37-.86,8.1-2.57,11.18-1.72,3.1-4.08,5.43-7.09,6.99-.1.05-.19.11-.3.15-2.93,1.48-6.2,2.22-9.87,2.22-.74,0-1.47-.04-2.18-.12-.72.09-1.44.12-2.18.12-3.68,0-6.95-.74-9.88-2.22-.11-.04-.21-.1-.3-.15-3-1.57-5.36-3.9-7.08-6.99-1.72-3.08-2.59-6.81-2.59-11.18v-28.32h9.88v26.82c0,4.31,1.08,7.62,3.23,9.92,2.06,2.2,4.83,3.35,8.31,3.45.23.01.46.01.69.01.17,0,.34,0,.51-.01,3.48-.1,6.25-1.25,8.31-3.45,2.16-2.29,3.23-5.61,3.23-9.92v-26.82h9.88Z"/>
      <path class="cls-1" d="M1064.84,397.28c-3-1.37-5.37-3.23-7.12-5.59-1.75-2.36-2.68-4.99-2.8-7.91h10.31c.17,2.04,1.15,3.74,2.93,5.11,1.78,1.37,4.01,2.05,6.69,2.05s4.97-.54,6.51-1.62c1.54-1.08,2.32-2.46,2.32-4.15,0-1.81-.86-3.15-2.58-4.02-1.72-.87-4.44-1.83-8.17-2.88-3.61-.99-6.55-1.95-8.83-2.88-2.27-.93-4.24-2.36-5.9-4.28s-2.49-4.46-2.49-7.6c0-2.56.76-4.91,2.27-7.03,1.51-2.13,3.68-3.8,6.51-5.02,2.83-1.22,6.07-1.84,9.74-1.84,5.48,0,9.89,1.38,13.24,4.15,3.35,2.77,5.14,6.54,5.38,11.32h-9.96c-.17-2.15-1.05-3.87-2.62-5.16-1.57-1.28-3.7-1.92-6.38-1.92s-4.63.5-6.03,1.49-2.1,2.3-2.1,3.93c0,1.28.47,2.36,1.4,3.23.93.87,2.07,1.56,3.41,2.05,1.34.5,3.32,1.12,5.94,1.88,3.5.93,6.36,1.88,8.61,2.84,2.24.96,4.18,2.38,5.81,4.24,1.63,1.87,2.47,4.34,2.53,7.43,0,2.74-.76,5.19-2.27,7.34-1.52,2.16-3.66,3.85-6.42,5.07-2.77,1.22-6.02,1.84-9.74,1.84s-7.18-.69-10.18-2.05Z"/>
    </g>
    <g>
      <path class="cls-3" d="M524.83,378.41v9.92c0,6.33-5.15,11.48-11.48,11.48h-9.92c-6.33,0-11.48-5.15-11.48-11.48v-9.92c0-.49.03-.96.09-1.43l-.09-.04s2.86-14.3-14.3-14.3h-10.01c-17.16,0-14.3,14.3-14.3,14.3l-.09.04c.06.47.09.94.09,1.43v9.92c0,6.33-5.15,11.48-11.48,11.48h-9.92c-6.33,0-11.48-5.15-11.48-11.48v-9.92c0-6.33,5.15-11.48,11.48-11.48h9.49c14.34-1.34,14.77-14.05,14.77-16.1v-9.59c0-.43.03-.84.07-1.26.03-.21.06-.41.09-.62.03-.2.07-.4.11-.6-.1-.29-.19-.59-.27-.9-2.52-9.21-9.26-11.17-10.88-11.49-1.09.34-2.26.53-3.46.53h-9.92c-6.33,0-11.48-5.15-11.48-11.48v-9.92c0-6.33,5.15-11.48,11.48-11.48h9.92c6.33,0,11.48,5.15,11.48,11.48v9.97c1.33,14.58,11.27,14.5,12.7,14.41.06,0,.11-.01.17-.01.24-.04.49-.06.73-.07.24-.03.5-.03.74-.03h9.92c.24,0,.5,0,.74.03.24.01.49.03.73.07,0,0,.06,0,.17.01,4.73.69,8.55,4.26,9.56,8.89.04.2.09.4.11.6.03.2.06.4.09.62.04.41.07.84.07,1.26v9.59c0,2.04.43,14.75,14.77,16.1h9.49c6.33,0,11.48,5.15,11.48,11.48Z"/>
      <rect class="cls-3" x="490.51" y="294.02" width="34.31" height="34.31" rx="7.99" ry="7.99"/>
    </g>
  </g>
  <text class="cls-2" transform="translate(242.19 514.38)"><tspan x="0" y="0">Inspiring Legal Minds, Shaping the Future of Technology.</tspan></text>
</svg>