<?xml version="1.0" encoding="UTF-8"?>
<svg id="Calque_1" data-name="Calque 1" xmlns="http://www.w3.org/2000/svg" xmlns:xlink="http://www.w3.org/1999/xlink" viewBox="0 0 37 37">
  <defs>
    <style>
      .cls-1, .cls-2 {
        opacity: .76;
      }

      .cls-3 {
        opacity: .61;
      }

      .cls-4 {
        fill: url(#Dégradé_sans_nom_14-2);
      }

      .cls-5 {
        fill: url(#Dégradé_sans_nom_14);
      }

      .cls-6 {
        fill: #fff;
      }

      .cls-7 {
        fill: url(#Dégradé_sans_nom_14-3);
      }

      .cls-8, .cls-2 {
        fill: none;
      }

      .cls-9 {
        clip-path: url(#clippath-1);
      }

      .cls-10 {
        fill: #3bd77d;
      }

      .cls-11 {
        opacity: .28;
      }

      .cls-12 {
        clip-path: url(#clippath);
      }
    </style>
    <clipPath id="clippath">
      <rect class="cls-8" x="-680" y="-827.1" width="1603" height="471.2"/>
    </clipPath>
    <clipPath id="clippath-1">
      <rect class="cls-2" x="-101.63" y="-848.08" width="919.82" height="919.82"/>
    </clipPath>
    <linearGradient id="Dégradé_sans_nom_14" data-name="Dégradé sans nom 14" x1="-7.62" y1="-181.49" x2="716.92" y2="-599.8" gradientUnits="userSpaceOnUse">
      <stop offset="0" stop-color="#34f5c6" stop-opacity="0"/>
      <stop offset="1" stop-color="#1dcdfe"/>
    </linearGradient>
    <linearGradient id="Dégradé_sans_nom_14-2" data-name="Dégradé sans nom 14" x1="9.57" y1="-191.41" x2="699.72" y2="-589.87" xlink:href="#Dégradé_sans_nom_14"/>
    <linearGradient id="Dégradé_sans_nom_14-3" data-name="Dégradé sans nom 14" x1="-25.3" y1="-171.28" x2="734.59" y2="-610" xlink:href="#Dégradé_sans_nom_14"/>
  </defs>
  <g class="cls-12">
    <g class="cls-3">
      <g class="cls-9">
        <g class="cls-11">
          <g class="cls-1">
            <path class="cls-5" d="M354.65-807.1c56.22,0,110.76,11.01,162.1,32.73,49.59,20.98,94.13,51,132.38,89.25,38.25,38.25,68.28,82.79,89.25,132.38,21.72,51.34,32.73,105.88,32.73,162.1s-11.01,110.76-32.73,162.1c-20.98,49.59-51,94.13-89.25,132.38-38.25,38.25-82.79,68.28-132.38,89.25-51.34,21.72-105.88,32.73-162.1,32.73S243.88,14.81,192.54-6.91c-49.59-20.98-94.13-51-132.38-89.25S-8.11-178.95-29.09-228.54c-21.72-51.34-32.73-105.88-32.73-162.1s11.01-110.76,32.73-162.1c20.98-49.59,51-94.13,89.25-132.38s82.79-68.28,132.38-89.25c51.34-21.72,105.88-32.73,162.1-32.73M354.65-808.89c-230.99,0-418.24,187.25-418.24,418.24S123.66,27.6,354.65,27.6s418.24-187.25,418.24-418.24-187.25-418.24-418.24-418.24h0Z"/>
          </g>
          <g class="cls-1">
            <path class="cls-4" d="M354.65-787.25c53.54,0,105.48,10.49,154.38,31.17,47.23,19.98,89.64,48.57,126.07,85,36.42,36.42,65.02,78.84,85,126.07,20.68,48.89,31.17,100.83,31.17,154.38s-10.49,105.48-31.17,154.38c-19.98,47.23-48.57,89.64-85,126.07-36.42,36.42-78.84,65.02-126.07,85-48.89,20.68-100.83,31.17-154.38,31.17s-105.48-10.49-154.38-31.17c-47.23-19.98-89.64-48.57-126.07-85S9.18-189.04-10.8-236.26c-20.68-48.89-31.17-100.83-31.17-154.38s10.49-105.48,31.17-154.38c19.98-47.23,48.57-89.64,85-126.07s78.84-65.02,126.07-85c48.89-20.68,100.83-31.17,154.38-31.17M354.65-789.04c-220.03,0-398.39,178.37-398.39,398.39S134.62,7.75,354.65,7.75s398.39-178.37,398.39-398.39-178.37-398.39-398.39-398.39h0Z"/>
          </g>
          <g class="cls-1">
            <path class="cls-7" d="M354.65-827.5c58.98,0,116.19,11.55,170.05,34.33,52.02,22,98.74,53.5,138.86,93.62,40.12,40.12,71.62,86.84,93.62,138.86,22.78,53.86,34.33,111.07,34.33,170.05s-11.55,116.19-34.33,170.05c-22,52.02-53.5,98.74-93.62,138.86-40.12,40.12-86.84,71.62-138.86,93.62-53.86,22.78-111.07,34.33-170.05,34.33s-116.19-11.55-170.05-34.33C132.58-10.11,85.86-41.61,45.74-81.73,5.62-121.86-25.88-168.58-47.89-220.6c-22.78-53.86-34.33-111.07-34.33-170.05s11.55-116.19,34.33-170.05c22-52.02,53.5-98.74,93.62-138.86s86.84-71.62,138.86-93.62c53.86-22.78,111.07-34.33,170.05-34.33M354.65-829.29c-242.26,0-438.65,196.39-438.65,438.65S112.39,48,354.65,48s438.65-196.39,438.65-438.65-196.39-438.65-438.65-438.65h0Z"/>
          </g>
        </g>
      </g>
    </g>
  </g>
  <g>
    <path class="cls-6" d="M32.01,10.34c-1.73-1.34-3.91-2.14-6.27-2.14h-15.46c-2.84,0-5.41,1.15-7.26,3.01-1.86,1.86-3.01,4.43-3.01,7.26,0,5.67,4.6,10.27,10.27,10.27h15.46c2.36,0,4.54-.8,6.27-2.14v2.14h3.99v-10.71c-.13-3.13-1.67-5.9-3.99-7.69ZM30.13,23.14c-1.19,1.19-2.83,1.92-4.65,1.92h-14.98c-3.63,0-6.57-2.94-6.57-6.57,0-1.81.74-3.46,1.92-4.65,1.19-1.19,2.83-1.92,4.65-1.92h14.98c3.37,0,6.15,2.54,6.53,5.81.03.25.05.51.05.76s-.02.51-.05.77c-.17,1.51-.86,2.86-1.88,3.88Z"/>
    <path class="cls-10" d="M20.51,18.64c0-2.42,1.95-4.44,4.38-4.44s4.31,2.02,4.31,4.44-1.89,4.38-4.31,4.38-4.38-1.95-4.38-4.38Z"/>
  </g>
</svg>