<?xml version="1.0" encoding="UTF-8"?>
<svg id="Calque_1" data-name="Calque 1" xmlns="http://www.w3.org/2000/svg" xmlns:xlink="http://www.w3.org/1999/xlink" viewBox="0 0 144 37">
  <defs>
    <style>
      .cls-1, .cls-2 {
        opacity: .76;
      }

      .cls-3 {
        opacity: .61;
      }

      .cls-4 {
        fill: url(#Dégradé_sans_nom_14-2);
      }

      .cls-5 {
        fill: url(#Dégradé_sans_nom_14);
      }

      .cls-6 {
        fill: #fff;
      }

      .cls-7 {
        fill: url(#Dégradé_sans_nom_14-3);
      }

      .cls-8, .cls-2 {
        fill: none;
      }

      .cls-9 {
        clip-path: url(#clippath-1);
      }

      .cls-10 {
        fill: #3bd77d;
      }

      .cls-11 {
        fill: #191050;
      }

      .cls-12 {
        opacity: .28;
      }

      .cls-13 {
        clip-path: url(#clippath);
      }
    </style>
    <clipPath id="clippath">
      <rect class="cls-8" x="-530" y="-827.1" width="1603" height="471.2"/>
    </clipPath>
    <clipPath id="clippath-1">
      <rect class="cls-2" x="48.37" y="-848.08" width="919.82" height="919.82"/>
    </clipPath>
    <linearGradient id="Dégradé_sans_nom_14" data-name="Dégradé sans nom 14" x1="142.38" y1="-181.49" x2="866.92" y2="-599.8" gradientUnits="userSpaceOnUse">
      <stop offset="0" stop-color="#34f5c6" stop-opacity="0"/>
      <stop offset="1" stop-color="#1dcdfe"/>
    </linearGradient>
    <linearGradient id="Dégradé_sans_nom_14-2" data-name="Dégradé sans nom 14" x1="159.57" y1="-191.41" x2="849.72" y2="-589.87" xlink:href="#Dégradé_sans_nom_14"/>
    <linearGradient id="Dégradé_sans_nom_14-3" data-name="Dégradé sans nom 14" x1="124.7" y1="-171.28" x2="884.59" y2="-610" xlink:href="#Dégradé_sans_nom_14"/>
  </defs>
  <g class="cls-13">
    <g class="cls-3">
      <g class="cls-9">
        <g class="cls-12">
          <g class="cls-1">
            <path class="cls-5" d="M504.65-807.1c56.22,0,110.76,11.01,162.1,32.73,49.59,20.98,94.13,51,132.38,89.25,38.25,38.25,68.28,82.79,89.25,132.38,21.72,51.34,32.73,105.88,32.73,162.1s-11.01,110.76-32.73,162.1c-20.98,49.59-51,94.13-89.25,132.38-38.25,38.25-82.79,68.28-132.38,89.25-51.34,21.72-105.88,32.73-162.1,32.73s-110.76-11.01-162.1-32.73c-49.59-20.98-94.13-51-132.38-89.25s-68.28-82.79-89.25-132.38c-21.72-51.34-32.73-105.88-32.73-162.1s11.01-110.76,32.73-162.1c20.98-49.59,51-94.13,89.25-132.38s82.79-68.28,132.38-89.25c51.34-21.72,105.88-32.73,162.1-32.73M504.65-808.89c-230.99,0-418.24,187.25-418.24,418.24S273.66,27.6,504.65,27.6s418.24-187.25,418.24-418.24-187.25-418.24-418.24-418.24h0Z"/>
          </g>
          <g class="cls-1">
            <path class="cls-4" d="M504.65-787.25c53.54,0,105.48,10.49,154.38,31.17,47.23,19.98,89.64,48.57,126.07,85,36.42,36.42,65.02,78.84,85,126.07,20.68,48.89,31.17,100.83,31.17,154.38s-10.49,105.48-31.17,154.38c-19.98,47.23-48.57,89.64-85,126.07-36.42,36.42-78.84,65.02-126.07,85-48.89,20.68-100.83,31.17-154.38,31.17s-105.48-10.49-154.38-31.17c-47.23-19.98-89.64-48.57-126.07-85s-65.02-78.84-85-126.07c-20.68-48.89-31.17-100.83-31.17-154.38s10.49-105.48,31.17-154.38c19.98-47.23,48.57-89.64,85-126.07s78.84-65.02,126.07-85c48.89-20.68,100.83-31.17,154.38-31.17M504.65-789.04c-220.03,0-398.39,178.37-398.39,398.39S284.62,7.75,504.65,7.75s398.39-178.37,398.39-398.39-178.37-398.39-398.39-398.39h0Z"/>
          </g>
          <g class="cls-1">
            <path class="cls-7" d="M504.65-827.5c58.98,0,116.19,11.55,170.05,34.33,52.02,22,98.74,53.5,138.86,93.62,40.12,40.12,71.62,86.84,93.62,138.86,22.78,53.86,34.33,111.07,34.33,170.05s-11.55,116.19-34.33,170.05c-22,52.02-53.5,98.74-93.62,138.86-40.12,40.12-86.84,71.62-138.86,93.62-53.86,22.78-111.07,34.33-170.05,34.33s-116.19-11.55-170.05-34.33c-52.02-22-98.74-53.5-138.86-93.62-40.12-40.12-71.62-86.84-93.62-138.86-22.78-53.86-34.33-111.07-34.33-170.05s11.55-116.19,34.33-170.05c22-52.02,53.5-98.74,93.62-138.86s86.84-71.62,138.86-93.62c53.86-22.78,111.07-34.33,170.05-34.33M504.65-829.29c-242.26,0-438.65,196.39-438.65,438.65S262.39,48,504.65,48s438.65-196.39,438.65-438.65-196.39-438.65-438.65-438.65h0Z"/>
          </g>
        </g>
      </g>
    </g>
  </g>
  <g>
    <g>
      <path class="cls-6" d="M42.43,33.17c-3.31,0-6.01-2.7-6.01-6.01V8.01c0-3.31,2.7-6.01,6.01-6.01,1.05,0,2.07.27,2.97.79.46.26.89.59,1.28.98.84.84,1.41,1.9,1.64,3.06.02.08.03.14.03.2.05.29.08.63.08.99v19.15c0,3.31-2.7,6.01-6.01,6.01Z"/>
      <path class="cls-10" d="M42.43,3c.9,0,1.74.24,2.47.65.39.22.75.5,1.07.82.69.68,1.17,1.56,1.37,2.55,0,.04.02.09.02.13.05.28.07.57.07.86v19.15c0,2.77-2.24,5.01-5.01,5.01s-5.01-2.24-5.01-5.01V8.01c0-2.77,2.24-5.01,5.01-5.01M42.43,1c-3.87,0-7.01,3.14-7.01,7.01v19.15c0,3.87,3.14,7.01,7.01,7.01s7.01-3.14,7.01-7.01V8.01c0-.4-.03-.8-.1-1.18-.01-.06-.02-.13-.04-.19-.27-1.37-.94-2.6-1.92-3.58-.45-.45-.96-.84-1.51-1.14-1.03-.59-2.23-.91-3.45-.91h0Z"/>
    </g>
    <path class="cls-11" d="M59.08,22.52c0-1.38,1.4-2.23,3.02-2.25v-3.01h-.02c-3.82,0-6.54,2.25-6.54,5.33,0,6.68,10.04,3.89,10.04,7.58,0,1.52-1.51,2.34-3.49,2.36v3h.09c3.72,0,6.93-2.11,6.93-5.43,0-6.61-10.04-4-10.04-7.58Z"/>
    <path class="cls-11" d="M80.02,20.7v-3.07h-3.01v-4.54h-3.54v4.54h-3.47v3.07h3.47v8.15c0,3.96,2.28,6.7,6.55,6.75v-3.24c-1.85-.18-3.01-1.5-3.01-3.62v-8.04h3.01Z"/>
    <path class="cls-11" d="M85.14,11.83c0-1.29,1.04-2.36,2.32-2.36s2.29,1.07,2.29,2.36-1,2.32-2.29,2.32-2.32-1.04-2.32-2.32ZM89.25,17.62v17.52h-3.54v-17.52h3.54Z"/>
    <path class="cls-11" d="M28.42,3c-.06.42-.09.84-.09,1.28v22.14c0,5.57-3,8.9-8.9,8.9v-3.54c3.57,0,5.25-1.89,5.25-5.11V4.22c0-.41.02-.82.06-1.22h3.68Z"/>
    <path class="cls-11" d="M50.97,16.88c0,.25,0,.5-.02.74h.02v8.86c0,5.08-3.07,9.08-8.58,9.08-4.27,0-7.08-2.5-8.09-6.03-.28-.96-.42-2-.42-3.09v-8.83h3.54v9.53c0,2.77,2.24,5.01,5.01,5.01s5.01-2.24,5.01-5.01v-15.34h3.53v5.06Z"/>
    <path class="cls-11" d="M122.43,19.09c-1.55-1.2-3.49-1.91-5.59-1.91h-13.79c-2.53,0-4.82,1.03-6.48,2.68-1.66,1.66-2.68,3.95-2.68,6.48,0,5.06,4.1,9.16,9.16,9.16h13.79c2.11,0,4.05-.71,5.59-1.91v1.91h3.56v-9.55c-.12-2.79-1.48-5.26-3.56-6.86ZM120.76,30.51c-1.06,1.06-2.52,1.72-4.14,1.72h-13.35c-3.24,0-5.86-2.62-5.86-5.86,0-1.62.66-3.08,1.72-4.14,1.06-1.06,2.52-1.72,4.14-1.72h13.35c3,0,5.48,2.26,5.82,5.18.03.22.04.45.04.68s-.01.46-.04.68c-.16,1.35-.77,2.55-1.68,3.46Z"/>
    <path class="cls-10" d="M112.18,26.5c0-2.16,1.74-3.96,3.9-3.96s3.84,1.8,3.84,3.96-1.68,3.9-3.84,3.9-3.9-1.74-3.9-3.9Z"/>
  </g>
</svg>