<?xml version="1.0" encoding="UTF-8"?>
<svg id="Calque_1" data-name="Calque 1" xmlns="http://www.w3.org/2000/svg" xmlns:xlink="http://www.w3.org/1999/xlink" viewBox="0 0 144 37">
  <defs>
    <style>
      .cls-1, .cls-2 {
        opacity: .76;
      }

      .cls-3 {
        opacity: .61;
      }

      .cls-4 {
        fill: url(#Dégradé_sans_nom_14-2);
      }

      .cls-5 {
        fill: url(#Dégradé_sans_nom_14);
      }

      .cls-6 {
        fill: #fff;
      }

      .cls-7 {
        fill: url(#Dégradé_sans_nom_14-3);
      }

      .cls-8, .cls-2 {
        fill: none;
      }

      .cls-9 {
        clip-path: url(#clippath-1);
      }

      .cls-10 {
        fill: #3bd77d;
      }

      .cls-11 {
        opacity: .28;
      }

      .cls-12 {
        clip-path: url(#clippath);
      }
    </style>
    <clipPath id="clippath">
      <rect class="cls-8" x="-530" y="-827.1" width="1603" height="471.2"/>
    </clipPath>
    <clipPath id="clippath-1">
      <rect class="cls-2" x="48.37" y="-848.08" width="919.82" height="919.82"/>
    </clipPath>
    <linearGradient id="Dégradé_sans_nom_14" data-name="Dégradé sans nom 14" x1="142.38" y1="-181.49" x2="866.92" y2="-599.8" gradientUnits="userSpaceOnUse">
      <stop offset="0" stop-color="#34f5c6" stop-opacity="0"/>
      <stop offset="1" stop-color="#1dcdfe"/>
    </linearGradient>
    <linearGradient id="Dégradé_sans_nom_14-2" data-name="Dégradé sans nom 14" x1="159.57" y1="-191.41" x2="849.72" y2="-589.87" xlink:href="#Dégradé_sans_nom_14"/>
    <linearGradient id="Dégradé_sans_nom_14-3" data-name="Dégradé sans nom 14" x1="124.7" y1="-171.28" x2="884.59" y2="-610" xlink:href="#Dégradé_sans_nom_14"/>
  </defs>
  <g class="cls-12">
    <g class="cls-3">
      <g class="cls-9">
        <g class="cls-11">
          <g class="cls-1">
            <path class="cls-5" d="M504.65-807.1c56.22,0,110.76,11.01,162.1,32.73,49.59,20.98,94.13,51,132.38,89.25,38.25,38.25,68.28,82.79,89.25,132.38,21.72,51.34,32.73,105.88,32.73,162.1s-11.01,110.76-32.73,162.1c-20.98,49.59-51,94.13-89.25,132.38-38.25,38.25-82.79,68.28-132.38,89.25-51.34,21.72-105.88,32.73-162.1,32.73s-110.76-11.01-162.1-32.73c-49.59-20.98-94.13-51-132.38-89.25s-68.28-82.79-89.25-132.38c-21.72-51.34-32.73-105.88-32.73-162.1s11.01-110.76,32.73-162.1c20.98-49.59,51-94.13,89.25-132.38s82.79-68.28,132.38-89.25c51.34-21.72,105.88-32.73,162.1-32.73M504.65-808.89c-230.99,0-418.24,187.25-418.24,418.24S273.66,27.6,504.65,27.6s418.24-187.25,418.24-418.24-187.25-418.24-418.24-418.24h0Z"/>
          </g>
          <g class="cls-1">
            <path class="cls-4" d="M504.65-787.25c53.54,0,105.48,10.49,154.38,31.17,47.23,19.98,89.64,48.57,126.07,85,36.42,36.42,65.02,78.84,85,126.07,20.68,48.89,31.17,100.83,31.17,154.38s-10.49,105.48-31.17,154.38c-19.98,47.23-48.57,89.64-85,126.07-36.42,36.42-78.84,65.02-126.07,85-48.89,20.68-100.83,31.17-154.38,31.17s-105.48-10.49-154.38-31.17c-47.23-19.98-89.64-48.57-126.07-85s-65.02-78.84-85-126.07c-20.68-48.89-31.17-100.83-31.17-154.38s10.49-105.48,31.17-154.38c19.98-47.23,48.57-89.64,85-126.07s78.84-65.02,126.07-85c48.89-20.68,100.83-31.17,154.38-31.17M504.65-789.04c-220.03,0-398.39,178.37-398.39,398.39S284.62,7.75,504.65,7.75s398.39-178.37,398.39-398.39-178.37-398.39-398.39-398.39h0Z"/>
          </g>
          <g class="cls-1">
            <path class="cls-7" d="M504.65-827.5c58.98,0,116.19,11.55,170.05,34.33,52.02,22,98.74,53.5,138.86,93.62,40.12,40.12,71.62,86.84,93.62,138.86,22.78,53.86,34.33,111.07,34.33,170.05s-11.55,116.19-34.33,170.05c-22,52.02-53.5,98.74-93.62,138.86-40.12,40.12-86.84,71.62-138.86,93.62-53.86,22.78-111.07,34.33-170.05,34.33s-116.19-11.55-170.05-34.33c-52.02-22-98.74-53.5-138.86-93.62-40.12-40.12-71.62-86.84-93.62-138.86-22.78-53.86-34.33-111.07-34.33-170.05s11.55-116.19,34.33-170.05c22-52.02,53.5-98.74,93.62-138.86s86.84-71.62,138.86-93.62c53.86-22.78,111.07-34.33,170.05-34.33M504.65-829.29c-242.26,0-438.65,196.39-438.65,438.65S262.39,48,504.65,48s438.65-196.39,438.65-438.65-196.39-438.65-438.65-438.65h0Z"/>
          </g>
        </g>
      </g>
    </g>
  </g>
  <g>
    <g>
      <path class="cls-6" d="M98.43,8.99c-.15-1.06.76-1.98,1.82-1.8.61.11,1.1.6,1.23,1.2.23,1.07-.58,2-1.62,1.93-.72-.05-1.34-.62-1.44-1.34ZM101.19,12.68v11.83h-2.39v-11.83h2.39Z"/>
      <path class="cls-6" d="M123.6,13.67c-1.04-.81-2.35-1.29-3.78-1.29h-9.31c-1.71,0-3.25.69-4.37,1.81-1.12,1.12-1.81,2.66-1.81,4.37,0,3.41,2.77,6.18,6.18,6.18h9.31c1.42,0,2.73-.48,3.78-1.29v1.29h2.4v-6.45c-.08-1.88-1-3.55-2.4-4.63ZM122.47,21.38c-.72.71-1.7,1.16-2.8,1.16h-9.02c-2.19,0-3.96-1.77-3.96-3.96,0-1.09.44-2.08,1.16-2.8.71-.71,1.7-1.16,2.8-1.16h9.02c2.03,0,3.7,1.53,3.93,3.5.02.15.03.3.03.46s0,.31-.03.46c-.1.91-.52,1.72-1.13,2.34Z"/>
      <path class="cls-10" d="M116.68,18.67c0-1.46,1.18-2.68,2.63-2.68s2.59,1.22,2.59,2.68-1.14,2.63-2.59,2.63-2.63-1.18-2.63-2.63Z"/>
    </g>
    <path class="cls-6" d="M14.03,19.88v-11.5h1.61v11.5c0,1.88,1.52,3.4,3.4,3.4h6.03v1.43h-6.21c-2.66,0-4.82-2.16-4.82-4.82Z"/>
    <path class="cls-6" d="M32.03,24.93c-.86,0-1.66-.16-2.39-.49-.74-.33-1.37-.78-1.91-1.35-.54-.57-.95-1.23-1.25-1.98-.3-.75-.45-1.55-.45-2.41,0-1.11.26-2.13.77-3.06.51-.93,1.22-1.67,2.13-2.22.9-.56,1.93-.83,3.08-.83s2.21.28,3.09.84c.88.56,1.57,1.31,2.08,2.23s.76,1.93.76,3.03v.35c0,.11,0,.2-.02.26h-10.25c.08.85.32,1.61.72,2.28.41.66.93,1.19,1.59,1.58.65.39,1.36.58,2.13.58s1.52-.2,2.22-.6c.7-.4,1.18-.92,1.46-1.56l1.36.37c-.25.57-.62,1.08-1.13,1.54s-1.1.82-1.78,1.07c-.68.25-1.41.38-2.2.38ZM27.62,18.17h8.85c-.06-.86-.3-1.62-.7-2.27-.41-.65-.93-1.16-1.59-1.54-.65-.37-1.37-.56-2.15-.56s-1.49.19-2.14.56c-.64.37-1.17.89-1.57,1.55-.41.66-.64,1.41-.7,2.26Z"/>
    <path class="cls-6" d="M40.47,13.05l3.28,4.35s.04.06.06.09l.16.3.16-.3s.04-.06.06-.09l3.25-4.35c.13-.18.34-.28.56-.28h.02c.58,0,.9.66.56,1.12l-3.38,4.46c-.19.25-.19.6,0,.85l3.37,4.39c.35.46.02,1.12-.55,1.12h0c-.22,0-.43-.1-.56-.28l-3.26-4.34s-.03-.05-.05-.07l-.16-.28-.16.28s-.03.05-.05.07l-3.26,4.34c-.13.18-.34.28-.56.28h-.01c-.58,0-.9-.66-.55-1.12l3.35-4.39c.19-.25.19-.59,0-.84l-3.37-4.46c-.35-.46-.02-1.12.56-1.12h0c.22,0,.43.1.56.28Z"/>
    <path class="cls-6" d="M56.08,24.93c-.87,0-1.67-.16-2.4-.49-.73-.33-1.36-.78-1.88-1.35-.53-.57-.94-1.23-1.23-1.97-.29-.74-.44-1.52-.44-2.34s.15-1.65.44-2.39c.29-.74.7-1.39,1.24-1.97.54-.57,1.17-1.02,1.9-1.35.73-.33,1.52-.49,2.38-.49s1.65.16,2.37.49c.72.33,1.35.78,1.89,1.35.54.57.95,1.23,1.24,1.97.29.74.44,1.54.44,2.39s-.15,1.6-.44,2.34c-.29.74-.7,1.39-1.23,1.97-.53.57-1.16,1.02-1.89,1.35-.73.33-1.52.49-2.38.49ZM51.71,18.8c0,.88.2,1.69.59,2.41.39.72.92,1.29,1.57,1.71.66.42,1.39.63,2.18.63s1.52-.21,2.18-.64c.66-.43,1.19-1.01,1.59-1.75.4-.74.6-1.55.6-2.43s-.2-1.67-.6-2.4c-.4-.73-.93-1.31-1.59-1.73-.66-.43-1.39-.64-2.18-.64s-1.53.22-2.18.66c-.66.44-1.18,1.02-1.57,1.75-.39.72-.59,1.53-.59,2.43Z"/>
    <path class="cls-6" d="M76.01,24.93c-.87,0-1.67-.16-2.4-.49-.73-.33-1.36-.78-1.88-1.35-.53-.57-.94-1.23-1.23-1.97-.29-.74-.44-1.52-.44-2.34s.15-1.65.44-2.39c.29-.74.7-1.39,1.24-1.97.54-.57,1.17-1.02,1.9-1.35.73-.33,1.52-.49,2.38-.49s1.65.16,2.37.49c.72.33,1.35.78,1.89,1.35.54.57.95,1.23,1.24,1.97.29.74.44,1.54.44,2.39s-.15,1.6-.44,2.34c-.29.74-.7,1.39-1.23,1.97-.53.57-1.16,1.02-1.89,1.35-.73.33-1.52.49-2.38.49ZM71.64,18.8c0,.88.2,1.69.59,2.41.39.72.92,1.29,1.57,1.71.66.42,1.39.63,2.18.63s1.52-.21,2.18-.64c.66-.43,1.19-1.01,1.59-1.75.4-.74.6-1.55.6-2.43s-.2-1.67-.6-2.4c-.4-.73-.93-1.31-1.59-1.73-.66-.43-1.39-.64-2.18-.64s-1.53.22-2.18.66c-.66.44-1.18,1.02-1.57,1.75-.39.72-.59,1.53-.59,2.43Z"/>
    <path class="cls-6" d="M94.96,16.18c-.29-.74-.71-1.39-1.24-1.97-.54-.57-1.16-1.02-1.88-1.35-.72-.33-1.51-.49-2.37-.49s-1.65.16-2.38.49c-.73.33-1.36.78-1.9,1.35s-.95,1.23-1.24,1.97c-.29.74-.44,1.54-.44,2.39s.14,1.6.44,2.34c.1.26.22.51.35.74.24.44.54.85.88,1.22.06.07.13.13.19.2.48.48,1.05.86,1.69,1.15.33.15.67.26,1.03.34.43.1.89.15,1.37.15.03,0,.05,0,.08,0,.83,0,1.59-.17,2.3-.49.64-.29,1.2-.67,1.69-1.15.05-.05.1-.1.15-.15,0,0,.12,1.42.12,1.81s-.04.79-.12,1.16c-.1.45-.26.87-.47,1.27-.4.74-.93,1.32-1.59,1.75-.63.41-1.33.62-2.08.64-.03,0-.07,0-.1,0-.47,0-.92-.07-1.35-.22-.29-.1-.57-.24-.84-.41-.22-.14-.42-.29-.61-.47v1.78c.13.07.28.14.42.21.33.15.67.26,1.03.34.43.1.89.15,1.37.15.03,0,.05,0,.08,0,.83,0,1.59-.17,2.3-.49.71-.32,1.32-.75,1.84-1.3.01-.01.03-.03.04-.05.06-.06.11-.12.16-.18.45-.53.81-1.12,1.07-1.78.19-.49.32-1,.38-1.52,0,0,.05-6.76.05-7.03,0-.85-.14-1.65-.43-2.39ZM93.53,20.24c-.09.25-.19.49-.32.72-.13.25-.28.48-.45.7-.32.42-.7.77-1.13,1.05-.63.41-1.33.62-2.08.64-.03,0-.07,0-.1,0-.47,0-.92-.07-1.35-.22-.29-.1-.57-.24-.84-.41-.43-.28-.81-.62-1.13-1.03-.17-.21-.31-.44-.45-.68-.13-.24-.24-.49-.32-.75-.18-.52-.26-1.07-.26-1.66,0-.9.19-1.71.59-2.43.39-.72.92-1.3,1.57-1.75.66-.44,1.39-.66,2.18-.66s1.52.21,2.18.64,1.19,1,1.59,1.74c.4.73.6,1.53.6,2.4,0,.6-.09,1.17-.28,1.71Z"/>
    <rect class="cls-6" x="64.7" y="7.88" width="1.45" height="16.78"/>
  </g>
</svg>